# xmcd
#
# Track frame offsets:
#	150
#	13709
#	29925
#	49330
#	65464
#	83289
#	96567
#	115602
#	128279
#	145947
#	159328
#	174498
#	191746
#
# Disc length: 2880 seconds
#
# Revision: 1
# Processed by: cddbd v1.5.1PL0 Copyright (c) Steve Scherf et al.
# Submitted via: Audio-CD-Archiv 4.00.503
#
DISCID=a90b3e0d
DTITLE=Rill, Markus - The Hobo Companion
DYEAR=2004
DGENRE=country
TTITLE0=Waiting Around To Die (Studio)
TTITLE1=A Girl Called Jo (live)
TTITLE2=One More Dollar (Studio)
TTITLE3=Hobo Dream (Live Radio Session)
TTITLE4=So I Can Take My Rest (Studio)
TTITLE5=No Penitentiary (Studio)
TTITLE6=If I Needed You/Ft. Worth Blues (with Rachel Harrington) (Studio)
TTITLE7=Folsom Prison Blues (live)
TTITLE8=Where Do We Go From Here (live Acoustic)
TTITLE9=To Kill A Mockingbird (Demo)
TTITLE10=Run, Run, Run (Live Radio Session)
TTITLE11=Wild Blue Heart (Demo)
TTITLE12=Nowhere Begins (live)
EXTD=
EXTT0=
EXTT1=
EXTT2=
EXTT3=
EXTT4=
EXTT5=
EXTT6=
EXTT7=
EXTT8=
EXTT9=
EXTT10=
EXTT11=
EXTT12=
PLAYORDER=
